# Blender v2.80 (sub 75) OBJ File: ''
# www.blender.org
mtllib house.mtl
o Building01_OBJ
v -10.000000 -0.000002 15.000000
v 10.000000 -0.000002 15.000000
v 10.000000 2.520267 15.000000
v -10.000000 2.520267 15.000000
v -10.080000 2.520267 15.080000
v 10.080000 2.520267 15.080000
v 10.080000 2.999998 15.080001
v -10.080000 2.999998 15.080001
v -10.000000 2.999998 15.000001
v 10.000000 2.999998 15.000001
v 10.000000 5.587646 15.000001
v -10.000000 5.587646 15.000001
v -10.080000 5.587646 15.080001
v 10.080000 5.587646 15.080001
v 10.080000 5.999998 15.080001
v -10.080000 5.999998 15.080001
v -10.000000 5.999998 15.000001
v 10.000000 5.999998 15.000001
v 10.000000 8.645021 15.000001
v -10.000000 8.645021 15.000001
v -10.080000 8.645021 15.080001
v 10.080000 8.645021 15.080001
v 10.080000 8.999997 15.080002
v -10.080000 8.999997 15.080002
v -10.000000 8.999997 15.000002
v 10.000000 8.999997 15.000002
v 10.000000 11.523389 15.000002
v -10.000000 11.523389 15.000002
v -10.080000 11.523389 15.080002
v 10.080000 11.523389 15.080002
v 10.080000 11.999997 15.080002
v -10.080000 11.999997 15.080002
v -10.000000 11.999997 15.000002
v 10.000000 11.999997 15.000002
v 10.000000 14.543944 15.000002
v -10.000000 14.543944 15.000002
v -10.120000 14.543944 15.120002
v 10.120000 14.543944 15.120002
v 10.120000 14.999997 15.120003
v -10.120000 14.999997 15.120003
v -10.000000 14.999997 15.000003
v 10.000000 14.999997 15.000003
v 10.000000 15.000003 -14.999997
v -10.000000 15.000003 -14.999997
v -10.120000 15.000003 -15.119997
v 10.120000 15.000003 -15.119997
v 10.120000 14.543950 -15.119998
v -10.120000 14.543950 -15.119998
v -10.000000 14.543950 -14.999998
v 10.000000 14.543950 -14.999998
v 10.000000 12.000003 -14.999998
v -10.000000 12.000003 -14.999998
v -10.080000 12.000003 -15.079998
v 10.080000 12.000003 -15.079998
v 10.080000 11.523395 -15.079998
v -10.080000 11.523395 -15.079998
v -10.000000 11.523395 -14.999998
v 10.000000 11.523395 -14.999998
v 10.000000 9.000003 -14.999998
v -10.000000 9.000003 -14.999998
v -10.080000 9.000003 -15.079998
v 10.080000 9.000003 -15.079998
v 10.080000 8.645027 -15.079999
v -10.080000 8.645027 -15.079999
v -10.000000 8.645027 -14.999999
v 10.000000 8.645027 -14.999999
v 10.000000 6.000002 -14.999999
v -10.000000 6.000002 -14.999999
v -10.080000 6.000002 -15.079999
v 10.080000 6.000002 -15.079999
v 10.080000 5.587651 -15.079999
v -10.080000 5.587651 -15.079999
v -10.000000 5.587651 -14.999999
v 10.000000 5.587651 -14.999999
v 10.000000 3.000002 -14.999999
v -10.000000 3.000002 -14.999999
v -10.080000 3.000002 -15.079999
v 10.080000 3.000002 -15.079999
v 10.080000 2.520272 -15.080000
v -10.080000 2.520272 -15.080000
v -10.000000 2.520272 -15.000000
v 10.000000 2.520272 -15.000000
v 10.000000 0.000002 -15.000000
v -10.000000 0.000002 -15.000000
v 10.000000 2.520267 15.000000
v -10.000000 2.520267 15.000000
v -10.000000 2.999998 15.000001
v 10.000000 2.999998 15.000001
v 10.000000 3.000002 -14.999999
v -10.000000 3.000002 -14.999999
v -10.000000 2.520272 -15.000000
v 10.000000 2.520272 -15.000000
v -10.000000 14.772044 15.000003
v 0.000000 14.772044 15.000003
v 0.000000 15.335187 15.000003
v -10.000000 15.335187 15.000003
v 10.000000 14.772044 15.000003
v 9.999998 15.335187 15.000003
v 0.000000 17.772045 15.000003
v -1.429181 17.772045 15.000003
v 1.765437 17.772045 15.000003
v 0.000000 17.772049 -14.999997
v -1.429181 17.772049 -14.999997
v 1.765438 17.772049 -14.999997
v 0.000000 15.335193 -14.999997
v -10.000000 15.335193 -14.999997
v 10.000000 15.335193 -14.999997
v 0.000000 14.772050 -14.999997
v -10.000000 14.772050 -14.999997
v 10.000000 14.772050 -14.999997
vt 0.375000 0.000000
vt 0.625000 0.000000
vt 0.625000 0.025000
vt 0.375000 0.025000
vt 0.375000 0.025000
vt 0.625000 0.025000
vt 0.625000 0.050000
vt 0.375000 0.050000
vt 0.375000 0.050000
vt 0.625000 0.050000
vt 0.625000 0.075000
vt 0.375000 0.075000
vt 0.375000 0.075000
vt 0.625000 0.075000
vt 0.625000 0.100000
vt 0.375000 0.100000
vt 0.375000 0.100000
vt 0.625000 0.100000
vt 0.625000 0.125000
vt 0.375000 0.125000
vt 0.375000 0.125000
vt 0.625000 0.125000
vt 0.625000 0.150000
vt 0.375000 0.150000
vt 0.375000 0.150000
vt 0.625000 0.150000
vt 0.625000 0.175000
vt 0.375000 0.175000
vt 0.375000 0.175000
vt 0.625000 0.175000
vt 0.625000 0.200000
vt 0.375000 0.200000
vt 0.375000 0.200000
vt 0.625000 0.200000
vt 0.625000 0.225000
vt 0.375000 0.225000
vt 0.375000 0.225000
vt 0.625000 0.225000
vt 0.625000 0.250000
vt 0.375000 0.250000
vt 0.375000 0.500000
vt 0.625000 0.500000
vt 0.625000 0.525000
vt 0.375000 0.525000
vt 0.375000 0.525000
vt 0.625000 0.525000
vt 0.625000 0.550000
vt 0.375000 0.550000
vt 0.375000 0.550000
vt 0.625000 0.550000
vt 0.625000 0.575000
vt 0.375000 0.575000
vt 0.375000 0.575000
vt 0.625000 0.575000
vt 0.625000 0.600000
vt 0.375000 0.600000
vt 0.375000 0.600000
vt 0.625000 0.600000
vt 0.625000 0.625000
vt 0.375000 0.625000
vt 0.375000 0.625000
vt 0.625000 0.625000
vt 0.625000 0.650000
vt 0.375000 0.650000
vt 0.375000 0.650000
vt 0.625000 0.650000
vt 0.625000 0.675000
vt 0.375000 0.675000
vt 0.375000 0.675000
vt 0.625000 0.675000
vt 0.625000 0.700000
vt 0.375000 0.700000
vt 0.375000 0.700000
vt 0.625000 0.700000
vt 0.625000 0.725000
vt 0.375000 0.725000
vt 0.375000 0.725000
vt 0.625000 0.725000
vt 0.625000 0.750000
vt 0.375000 0.750000
vt 0.625000 1.000000
vt 0.375000 1.000000
vt 0.875000 0.000000
vt 0.875000 0.025000
vt 0.875000 0.025000
vt 0.875000 0.050000
vt 0.875000 0.050000
vt 0.875000 0.075000
vt 0.875000 0.075000
vt 0.875000 0.100000
vt 0.875000 0.100000
vt 0.875000 0.125000
vt 0.875000 0.125000
vt 0.875000 0.150000
vt 0.875000 0.150000
vt 0.875000 0.175000
vt 0.875000 0.175000
vt 0.875000 0.200000
vt 0.875000 0.200000
vt 0.875000 0.225000
vt 0.875000 0.225000
vt 0.875000 0.250000
vt 0.125000 0.000000
vt 0.125000 0.025000
vt 0.125000 0.025000
vt 0.125000 0.050000
vt 0.125000 0.050000
vt 0.125000 0.075000
vt 0.125000 0.075000
vt 0.125000 0.100000
vt 0.125000 0.100000
vt 0.125000 0.125000
vt 0.125000 0.125000
vt 0.125000 0.150000
vt 0.125000 0.150000
vt 0.125000 0.175000
vt 0.125000 0.175000
vt 0.125000 0.200000
vt 0.125000 0.200000
vt 0.125000 0.225000
vt 0.125000 0.225000
vt 0.125000 0.250000
vt 0.625000 0.025000
vt 0.375000 0.025000
vt 0.375000 0.050000
vt 0.625000 0.050000
vt 0.625000 0.700000
vt 0.375000 0.700000
vt 0.375000 0.725000
vt 0.625000 0.725000
vt 0.875000 0.025000
vt 0.875000 0.050000
vt 0.125000 0.025000
vt 0.125000 0.050000
vt 0.375000 0.250000
vt 0.625000 0.250000
vt 0.625000 0.500000
vt 0.375000 0.500000
vt 0.375000 0.075000
vt 0.625000 0.075000
vt 0.625000 0.075000
vt 0.375000 0.075000
vt 0.625000 0.100000
vt 0.375000 0.100000
vt 0.375000 0.100000
vt 0.625000 0.100000
vt 0.375000 0.125000
vt 0.625000 0.125000
vt 0.625000 0.125000
vt 0.375000 0.125000
vt 0.625000 0.150000
vt 0.375000 0.150000
vt 0.375000 0.150000
vt 0.625000 0.150000
vt 0.375000 0.175000
vt 0.625000 0.175000
vt 0.625000 0.175000
vt 0.375000 0.175000
vt 0.625000 0.200000
vt 0.375000 0.200000
vt 0.375000 0.200000
vt 0.625000 0.200000
vt 0.375000 0.550000
vt 0.625000 0.550000
vt 0.625000 0.550000
vt 0.375000 0.550000
vt 0.625000 0.575000
vt 0.375000 0.575000
vt 0.375000 0.575000
vt 0.625000 0.575000
vt 0.375000 0.600000
vt 0.625000 0.600000
vt 0.625000 0.600000
vt 0.375000 0.600000
vt 0.625000 0.625000
vt 0.375000 0.625000
vt 0.375000 0.625000
vt 0.625000 0.625000
vt 0.375000 0.650000
vt 0.625000 0.650000
vt 0.625000 0.650000
vt 0.375000 0.650000
vt 0.625000 0.675000
vt 0.375000 0.675000
vt 0.375000 0.675000
vt 0.625000 0.675000
vt 0.375000 0.700000
vt 0.625000 0.700000
vt 0.625000 0.700000
vt 0.375000 0.700000
vt 0.625000 0.725000
vt 0.375000 0.725000
vt 0.375000 0.725000
vt 0.625000 0.725000
vt 0.625000 0.025000
vt 0.875000 0.025000
vt 0.875000 0.025000
vt 0.625000 0.025000
vt 0.875000 0.050000
vt 0.625000 0.050000
vt 0.625000 0.050000
vt 0.875000 0.050000
vt 0.625000 0.075000
vt 0.875000 0.075000
vt 0.875000 0.075000
vt 0.625000 0.075000
vt 0.875000 0.100000
vt 0.625000 0.100000
vt 0.625000 0.100000
vt 0.875000 0.100000
vt 0.625000 0.175000
vt 0.875000 0.175000
vt 0.875000 0.175000
vt 0.625000 0.175000
vt 0.875000 0.200000
vt 0.625000 0.200000
vt 0.625000 0.200000
vt 0.875000 0.200000
vt 0.125000 0.025000
vt 0.375000 0.025000
vt 0.375000 0.025000
vt 0.125000 0.025000
vt 0.375000 0.050000
vt 0.125000 0.050000
vt 0.125000 0.050000
vt 0.375000 0.050000
vt 0.125000 0.075000
vt 0.375000 0.075000
vt 0.375000 0.075000
vt 0.125000 0.075000
vt 0.375000 0.100000
vt 0.125000 0.100000
vt 0.125000 0.100000
vt 0.375000 0.100000
vt 0.125000 0.125000
vt 0.375000 0.125000
vt 0.375000 0.125000
vt 0.125000 0.125000
vt 0.375000 0.150000
vt 0.125000 0.150000
vt 0.125000 0.150000
vt 0.375000 0.150000
vt 0.875000 0.250000
vt 0.125000 0.250000
vt 0.375000 0.000000
vt 0.500000 0.000000
vt 0.500000 0.125000
vt 0.375000 0.125000
vt 0.625000 0.000000
vt 0.625000 0.125000
vt 0.500000 0.250000
vt 0.375000 0.250000
vt 0.625000 0.250000
vt 0.500000 0.500000
vt 0.375000 0.500000
vt 0.625000 0.500000
vt 0.500000 0.625000
vt 0.375000 0.625000
vt 0.625000 0.625000
vt 0.500000 0.750000
vt 0.375000 0.750000
vt 0.625000 0.750000
vt 0.500000 1.000000
vt 0.375000 1.000000
vt 0.625000 1.000000
vt 0.875000 0.000000
vt 0.875000 0.125000
vt 0.875000 0.250000
vt 0.125000 0.000000
vt 0.125000 0.125000
vt 0.125000 0.250000
vn 0.0000 0.0000 1.0000
vn 0.0000 0.0000 -1.0000
vn 0.0000 -1.0000 -0.0000
vn 1.0000 0.0000 0.0000
vn -1.0000 0.0000 0.0000
vn 0.0000 0.0000 0.0000
vn 0.0000 1.0000 -0.0000
vn 0.3423 0.9396 0.0000
vn 0.2838 0.9589 0.0000
vn -0.3303 0.9439 0.0000
vn -0.3303 0.9439 -0.0005
vn -0.2735 0.9619 0.0000
usemtl initialShadingGroup
s off
f 1/1/1 2/2/1 3/3/1 4/4/1
f 5/5/1 6/6/1 7/7/1 8/8/1
f 9/9/1 10/10/1 11/11/1 12/12/1
f 13/13/1 14/14/1 15/15/1 16/16/1
f 17/17/1 18/18/1 19/19/1 20/20/1
f 21/21/1 22/22/1 23/23/1 24/24/1
f 25/25/1 26/26/1 27/27/1 28/28/1
f 29/29/1 30/30/1 31/31/1 32/32/1
f 33/33/1 34/34/1 35/35/1 36/36/1
f 37/37/1 38/38/1 39/39/1 40/40/1
f 45/41/2 46/42/2 47/43/2 48/44/2
f 49/45/2 50/46/2 51/47/2 52/48/2
f 53/49/2 54/50/2 55/51/2 56/52/2
f 57/53/2 58/54/2 59/55/2 60/56/2
f 61/57/2 62/58/2 63/59/2 64/60/2
f 65/61/2 66/62/2 67/63/2 68/64/2
f 69/65/2 70/66/2 71/67/2 72/68/2
f 73/69/2 74/70/2 75/71/2 76/72/2
f 77/73/2 78/74/2 79/75/2 80/76/2
f 81/77/2 82/78/2 83/79/2 84/80/2
f 84/80/3 83/79/3 2/81/3 1/82/3
f 2/2/4 83/83/4 82/84/4 3/3/4
f 6/6/4 79/85/4 78/86/4 7/7/4
f 10/10/4 75/87/4 74/88/4 11/11/4
f 14/14/4 71/89/4 70/90/4 15/15/4
f 18/18/4 67/91/4 66/92/4 19/19/4
f 22/22/4 63/93/4 62/94/4 23/23/4
f 26/26/4 59/95/4 58/96/4 27/27/4
f 30/30/4 55/97/4 54/98/4 31/31/4
f 34/34/4 51/99/4 50/100/4 35/35/4
f 38/38/4 47/101/4 46/102/4 39/39/4
f 84/103/5 1/1/5 4/4/5 81/104/5
f 80/105/5 5/5/5 8/8/5 77/106/5
f 76/107/5 9/9/5 12/12/5 73/108/5
f 72/109/5 13/13/5 16/16/5 69/110/5
f 68/111/5 17/17/5 20/20/5 65/112/5
f 64/113/5 21/21/5 24/24/5 61/114/5
f 60/115/5 25/25/5 28/28/5 57/116/5
f 56/117/5 29/29/5 32/32/5 53/118/5
f 52/119/5 33/33/5 36/36/5 49/120/5
f 48/121/5 37/37/5 40/40/5 45/122/5
f 4/4/1 3/3/1 85/123/1 86/124/1
f 10/10/1 9/9/1 87/125/1 88/126/1
f 76/72/1 75/71/1 89/127/1 90/128/1
f 82/78/1 81/77/1 91/129/1 92/130/1
f 3/3/6 82/84/6 92/131/6 85/123/6
f 75/87/6 10/10/6 88/126/6 89/132/6
f 81/104/6 4/4/6 86/124/6 91/133/6
f 9/9/6 76/107/6 90/134/6 87/125/6
s 1
f 41/135/7 42/136/7 43/137/7 44/138/7
f 86/124/3 85/123/3 6/6/3 5/5/3
f 88/126/7 87/125/7 8/8/7 7/7/7
f 90/139/7 89/140/7 78/141/7 77/142/7
f 92/143/3 91/144/3 80/145/3 79/146/3
f 85/147/3 92/148/3 79/149/3 6/150/3
f 89/151/7 88/152/7 7/153/7 78/154/7
f 91/155/3 86/156/3 5/157/3 80/158/3
f 87/159/7 90/160/7 77/161/7 8/162/7
f 12/163/3 11/164/3 14/165/3 13/166/3
f 18/167/7 17/168/7 16/169/7 15/170/7
f 68/171/7 67/172/7 70/173/7 69/174/7
f 74/175/3 73/176/3 72/177/3 71/178/3
f 11/179/3 74/180/3 71/181/3 14/182/3
f 67/183/7 18/184/7 15/185/7 70/186/7
f 73/187/3 12/188/3 13/189/3 72/190/3
f 17/191/7 68/192/7 69/193/7 16/194/7
f 20/195/3 19/196/3 22/197/3 21/198/3
f 26/199/7 25/200/7 24/201/7 23/202/7
f 60/203/7 59/204/7 62/205/7 61/206/7
f 66/207/3 65/208/3 64/209/3 63/210/3
f 19/19/3 66/92/3 63/93/3 22/22/3
f 59/95/7 26/26/7 23/23/7 62/94/7
f 65/211/3 20/212/3 21/213/3 64/214/3
f 25/215/7 60/216/7 61/217/7 24/218/7
f 28/219/3 27/220/3 30/221/3 29/222/3
f 34/223/7 33/224/7 32/225/7 31/226/7
f 52/227/7 51/228/7 54/229/7 53/230/7
f 58/231/3 57/232/3 56/233/3 55/234/3
f 27/235/3 58/236/3 55/237/3 30/238/3
f 51/239/7 34/240/7 31/241/7 54/242/7
f 57/116/3 28/28/3 29/29/3 56/117/3
f 33/33/7 52/119/7 53/118/7 32/32/7
f 36/36/3 35/35/3 38/38/3 37/37/3
f 42/136/7 41/135/7 40/40/7 39/39/7
f 44/138/7 43/137/7 46/42/7 45/41/7
f 50/46/3 49/45/3 48/44/3 47/43/3
f 35/35/3 50/100/3 47/101/3 38/38/3
f 43/243/7 42/136/7 39/39/7 46/102/7
f 49/120/3 36/36/3 37/37/3 48/121/3
f 41/135/7 44/244/7 45/122/7 40/40/7
f 93/245/1 94/246/1 95/247/1 96/248/1
f 94/246/1 97/249/1 98/250/1 95/247/1
f 96/248/1 95/247/1 99/251/1 100/252/1
f 95/247/1 98/250/1 101/253/1 99/251/1
f 100/252/7 99/251/7 102/254/7 103/255/7
f 99/251/7 101/253/7 104/256/7 102/254/7
f 103/255/2 102/254/2 105/257/2 106/258/2
f 102/254/2 104/256/2 107/259/2 105/257/2
f 106/258/2 105/257/2 108/260/2 109/261/2
f 105/257/2 107/259/2 110/262/2 108/260/2
f 109/261/3 108/260/3 94/263/3 93/264/3
f 108/260/3 110/262/3 97/265/3 94/263/3
f 97/249/4 110/266/4 107/267/8 98/250/8
f 98/250/8 107/267/8 104/268/9 101/253/9
f 109/269/5 93/245/5 96/248/10 106/270/11
f 106/270/11 96/248/10 100/252/12 103/271/12
